<svg xmlns="http://www.w3.org/2000/svg" viewBox="0 0 502.5 177.7"><switch><g><g fill="#41464B"><path d="M260.5 48h-35.6c-.5 0-1 .4-1 1v2.9c0 .5.4 1 1 1h12.8c.5 0 1 .4 1 1v29.8c0 .5.4 1 1 1h6.2c.5 0 1-.4 1-1V53.8c0-.5.4-1 1-1h12.8c.5 0 1-.4 1-1V49c-.2-.6-.7-1-1.2-1M208.5 62.8H197c-7.7 0-8.3-1-8.3-4.7 0-5.3 2.7-4.8 11.1-4.8h20.1c.5 0 .9-.4.9-.9v-3.5c0-.5-.4-.9-.9-.9H196c-9.6 0-14.9 1.3-14.9 9.8 0 9.6 5.1 10.5 19.6 10.5h6.4c5.9 0 7.4.8 7.4 5 0 4.9-1.9 5.6-8.7 5.6h-24.4c-.5 0-.9.4-.9.9v3.9c0 .5.4.9.9.9h26.3c7.3 0 14.4-.7 14.4-9.6v-3.1c.1-6.2-4.3-9.1-13.6-9.1M329.3 69.4c-.3-.4-.4-.7-.3-.9.1-.1.2-.4.9-.6.1 0 9-2.3 9-9.7 0-2.9-1.9-5.7-5.3-7.8-3.8-2.3-8.6-2.4-9.2-2.4-.4 0-.8-.1-1.5-.1h-20c-.6 0-1.1.5-1.1 1.1v34.4c0 .5.4 1 1 1h6.1c.5 0 1-.4 1-1V53.9c0-.9.7-1.2 1.2-1.2h9.8c1 0 2.5.1 3.5.1 1 .1 3.1.4 4.3 1 1.8.9 2.8 2.4 2.7 4.2-.3 4.3-5 5.6-7.5 5.7-1.4.1-2.8.1-3.4.1h-3.4l13.6 19.4c.5.8 1.5 1.1 2.5 1.1h7.8c-.2.2-.9-.7-11.7-14.9M444.3 66.2c-.2-.2-.2-.6 0-.8 0 0 13.4-15.6 13.5-15.6.2-.2.3-.4.3-.7 0-.6-.5-1.1-1.1-1.1h-5c-1.1 0-2.3.5-2.8 1.1L439.8 60c-.1.1-.3.2-.5.2s-.4-.1-.5-.2l-9.4-10.9c-.5-.6-1.7-1.1-2.8-1.1h-4.9c-.6 0-1.1.5-1.1 1.1 0 .3.1.5.3.7l13.4 15.6c.2.2.2.6 0 .8l-16.1 18.3h7.2c1.6 0 2.3-.5 2.8-1.1l10.4-12.1c.1-.2.4-.3.6-.3.2 0 .4.1.6.3l10.4 12.1c.5.6 1.2 1.1 2.8 1.1h7.3l-16-18.3zM291.3 84.6h6.8l-19-35.8c-.3-.5-.8-.8-1.5-.8H273c-.6 0-1.1.3-1.4.8l-19.1 35.8h6.8c1 0 1.9-.6 2.3-1.4 2.1-4.3 13.3-26.9 13.3-26.9.1-.2.2-.3.4-.3s.3.1.4.2c0 0 11.4 23.2 13.3 27 .4.8 1.3 1.4 2.3 1.4M376.8 79.4h-24.3c-.5 0-1-.4-1-1V48.9c0-.5-.4-.9-.9-.9h-6.2c-.5 0-.9.4-.9.9V83c0 .9.7 1.6 1.6 1.6h31.6c.5 0 1-.4 1-1v-3.3c0-.5-.4-.9-.9-.9M416.5 48h-6.2c-.5 0-.9.4-.9.9v22.7c0 4.8-4.2 7.8-11 7.8s-11-3-11-7.8V48.9c0-.5-.4-.9-.9-.9h-6.2c-.5 0-.9.4-.9.9v23.3c0 7.3 8 12.7 19 12.7s19-5.3 19-12.7V48.9c0-.5-.4-.9-.9-.9"/></g><path fill="#98694C" d="M91.6 82l32.8-32.8c3.5-3.2 7.6-5.8 12.6-7.1h-35.1c-1 .1-2 .3-3.1.5h-.2c-.2 0-.4.1-.6.1-3.2.8-6.1 2.3-8.5 4.3-.7.5-1.4 1.1-2 1.8L47.7 88.9h27.4c6.4 0 12.2-2.6 16.5-6.9z"/><path fill="#86754D" d="M87.7 95.7l-32.6 32.6c-3.4 3.2-7.6 5.8-12.9 7.3h35.1c1-.1 2-.3 3.1-.5h.2c.2 0 .4-.1.6-.1 3.2-.8 6.1-2.3 8.5-4.3.7-.6 1.4-1.1 2-1.8L131.6 89h-27.4c-6.5-.1-12.3 2.5-16.5 6.7z"/><path fill="#98694C" d="M145.3 67.9v-.1c0-.1.1-.3.2-.3 3.6-1.1 14-2.2 14-2.2s-10.4-.7-14-1.8c-.1 0-.2-.2-.2-.3v-.1c.4-1.2 3.8-5.6 3.8-5.6l-5.5 3.9h-.1c-.2 0-.3-.1-.3-.3-1.1-5.5-1.9-15.7-1.9-15.8 0 .1-.7 10.3-1.9 15.8 0 .1-.2.3-.3.3h-.1l-5.5-3.9s3.3 4.3 3.8 5.5v.1c0 .1-.1.3-.2.3-3.6 1.1-14.1 1.9-14.1 1.9s10.4 1.1 14 2.2c.1 0 .2.2.2.3v.1c-.4 1.2-3.8 5.2-3.8 5.2l5.6-3.4h.1c.2 0 .3.1.3.3 1.1 5.5 1.8 15.7 1.8 15.8 0-.1.8-10.3 1.9-15.8 0-.1.2-.3.3-.3h.1l5.5 3.4s-3.3-4-3.7-5.2z"/><g fill="#41464B"><path d="M421.7 113.4h2c.6 0 1.1-.4 1.1-1v-.7-2c0-.6.5-1.1 1.3-1.1h6.2c.6 0 .9.4.7.8 0 0-.1.1-.1.2-3.4 5.3-6 7-10.9 10.5h4c2 0 2-.1 4.5-2.1 2.8-2.3 5.5-5.5 6.7-7.9.4-1 .6-1.4 1.7-1.4h1.8c.6 0 1.1.4 1.1 1v7.4c0 .8.3 1.5.9 2 .7.7 1.7 1.1 2.8 1.1h10.2c.6 0 1.3-.4 1.5-.9l.8-1.8H446.9c-.5 0-.9-.4-.9-.9v-7c0-.5.5-1 1.1-1h7.2c.6 0 1 .4 1 .8v3c0 .5.5 1 1.1 1h2c.6 0 1.1-.4 1.1-1V109.8c0-1.3-.5-2.4-1.6-3.2-.7-.5-1.7-.8-2.8-.8h-10.4c-.6 0-1.3-.4-1.6-.9l-.7-1.1c-.2-.5-.9-.9-1.5-.9h-2.5c-.6 0-.9.4-.6.9l.6 1.1c.3.5 0 .9-.6.9h-12.5c-1 0-2.1.3-3 .8-.9.6-1.5 1.5-1.5 2.8V112.3c-.2.6.3 1.1.9 1.1zM443.3 133c-.6 0-1.1-.4-1.1-1v-6.2c0-.5.5-1 1.1-1h10.1c1.4 0 2-.3 2.4-1.4.3-.8.4-1.3.4-1.3h-31.4c-.6 0-1.1.5-1.1 1v.7c0 .5.5 1 1.1 1H437c.6 0 1.1.5 1.1 1v6.2c0 .5-.5 1-1.1 1h-15.5c-.6 0-1.1.5-1.1 1v.6c0 .5.5 1 1.1 1h36.1c1.4 0 2-.3 2.4-1.4.3-.8.4-1.2.4-1.2h-17.1z"/></g><g fill="#41464B"><path d="M203.4 133.1c-.6 0-1.1-.4-1.1-1v-2.8c0-.5.5-1 1.1-1h11.1c1-.1 1.4-.4 1.8-1.4.3-.8.4-1.2.4-1.2h-13.4c-.6 0-1.1-.5-1.1-1v-2.1c0-.5.5-1 1.1-1h12.6c1-.1 1.4-.4 1.8-1.4.3-.8.4-1.2.4-1.2h-14.9c-.6 0-1.1-.4-1.1-1v-1.1c0-.5.4-.8.9-.9h9.7c1.5 0 2.7-.4 3.4-1.1.8-.7 1.1-1.6 1.1-2.7v-5.6c0-1-.5-1.9-1.2-2.5-.8-.6-1.8-.9-2.9-.9h-26.3c-1.1 0-2.1.3-2.9.9-.7.6-1.2 1.4-1.2 2.4v5.7c0 1 .3 1.9 1 2.6.7.6 1.7 1 3.2 1H197c.5.1.9.4.9.9v1.1c0 .5-.5 1-1.1 1h-6.4c-.6 0-1.2.1-.8-.6.6-.8.1-1.2-.5-1.2h-2.4c-.6 0-1.3.4-1.6.9l-4.4 6.6h3.6c.6 0 1.4-.4 1.7-.8l1.1-1.5c.3-.5 1-.9 1.6-.9h7.9c.6 0 1.1.4 1.1 1v2.1c0 .5-.5 1-1.1 1h-12.5c-.6 0-1.1.4-1.1 1v.6c0 .5.5 1 1.1 1h12.5c.6 0 1.1.4 1.1 1v2.8c0 .6-.5 1-1.1 1h-15.3c-.6 0-1.1.4-1.1 1v.6c0 .5.5 1 1.1 1h37.2c.6 0 .9-.3 1.1-1 .2-.7.5-1.6.5-1.6h-16.7zm-15.3-19.5c-.6 0-1.2-.4-1.2-1v-5.7c0-.6.6-1 1.2-1h23.7c.6 0 1.3.4 1.3.9v5.7c0 .5-.4 1.1-1.1 1.1h-23.9z"/><path d="M210 108.4h-20.2c-.8 0-1.4.6-1.4 1.3 0 .7.6 1.3 1.4 1.3H210c.8 0 1.4-.6 1.4-1.3 0-.7-.6-1.3-1.4-1.3z"/></g><g fill="#41464B"><path d="M262.2 114.6h2c.6 0 1.1-.4 1.1-1v-3.7c0-.5.6-.9 1.1-.9H294c.6 0 1.2.4 1.2.9v3.7c0 .5.5 1 1.1 1h2.1c.6 0 1.1-.4 1.1-1v-3.9c0-.9-.4-1.7-1.1-2.3-.7-.6-1.7-1-2.9-1h-11.9c-.8-.8-2-2.6-2-2.6-.3-.5-1-.9-1.6-.9h-2.6c-.3 0-.6.2-.6.5 0 .1 0 .2.1.2.6 1 1.3 1.9 1.3 1.9.3.5.1.8-.5.8H265.9c-1.5 0-2.6.3-3.4.9-.9.6-1.3 1.6-1.3 2.7v3.7c0 .5.5 1 1 1z"/><path d="M296.7 121h-12.9c-.6 0-1.1-.4-1.1-1v-3.7c0-.5.4-.9.9-1h7.4c1.4 0 2-.3 2.4-1.4.3-.8.4-1.3.4-1.3h-25.9c-.6 0-1.1.4-1.1 1v.6c0 .5.5 1 1.1 1h9.5c.6 0 1.1.4 1.1 1v3.7c0 .5-.5 1-1.1 1h-15.8c-.6 0-1.1.4-1.1 1v.6c0 .5.5 1 1.1 1h15.8c.6 0 1.1.4 1.1 1v7.4c0 .6-.4 1-1.2 1h-5l1 1.8c.4.6.9.9 1.6.9h3.8c1 0 2-.3 2.7-.8.8-.5 1.3-1.3 1.3-2.2v-8.1c0-.5.5-1 1.1-1h13.8c1.4 0 2-.3 2.4-1.4.3-.8.4-1.2.4-1.2h-3.7z"/></g><g fill="#41464B"><path d="M359.2 110.7H378c.6 0 1.3-.2 1.6-1l.6-1.6H372s-.5 0-.7-.2c-.2-.2-.3-.2-.4-.4-.9-1.6-1.7-3.6-1.7-3.6-.2-.5-.9-.9-1.5-.9h-2.2s-.5 0-.6.2c-.1.2 0 .5.1.8.6 1.5 1.3 3.2 1.3 3.2.2.5-.1.9-.7.9h-6.4c-.6 0-1.1.4-1.1 1v.6c0 .5.5 1 1.1 1zM380.4 132.9h-4.1c-.6 0-1-.3-1-.7v-15.1c0-.9-.4-1.6-1.1-2.2-.7-.6-1.7-.9-2.9-.9h-6.9c-1 0-1.9.3-2.5.8-.7.6-1.1 1.3-1.1 2.1v6.4c0 3-.3 7.7-3.1 11.3l-.9.9h4.5c.2 0 .4-.1.5-.2 1.8-3 3-6.8 3-10.4v-7.7c0-.3.5-.6.8-.6h5c.5 0 .8.4.8.7v14.5c0 1.2.3 2 .8 2.6.6.8 1.7 1.1 3.2 1.1h2.6c.7 0 1.2-.3 1.5-.9l.5-.9c.2-.3.4-.8.4-.8zM355.8 106.7c-.7-.5-1.6-.8-2.5-.8h-1.8c.2-.2.3-.5.4-.8.3-.7.6-1.3.6-1.3.2-.5-.1-.9-.7-.9h-2.3s-.3 0-.5.1c-.1.1-.2.3-.3.4-.3.9-.7 1.6-.7 1.6s-.3.7-.4.9h-1.4c-.8 0-1.6.3-2.2.9-.6.5-.9 1.1-.9 1.8v8.7c0 .7.1 1-.4 1h-2.3s.2 1 .4 1.6c.1.6.5 1 1.1 1h.8c.4 0 .4.2.4.7-.1 4.3-.4 8.7-1.8 12.7-.2.6-.4 1.3-.4 1.3h3.7c.2 0 .4-.1.5-.3 1.2-4.4 1.7-8.9 1.8-13.6.1-.5.6-.8 1.1-.8h4.1c.5 0 .9.3 1 .7l.1 10.6c0 .4-.3.8-.9.8h-4.1s.5 1 .9 1.7 1.3.9 1.9.9h2.7c.7 0 1.7-.2 2.4-.7.6-.4 1-1 1-1.8v-24.4c-.2-.9-.6-1.6-1.3-2zm-2.7 10v.7c0 .5-.5 1-1.1 1h-4.1c-.6 0-1.1-.4-1.1-1v-8c0-.4.5-.7 1-.7h4.3c.5 0 1 .3 1 .8v7.2z"/><path d="M351.4 112.3l-.2-.7c-.1-.5-.7-1-1.3-1h-2.3c.3 1.6.7 3.2 1.1 4.7l.1.3c.1.5.7 1 1.3 1h2.3l-1-4.3zM352.6 129.2c-.6-2-.7-2.7-1.3-5.1l-.2-.7c-.1-.5-.7-1-1.3-1h-2.3c.2 1.8.5 3.7 1 5.5 0 0 .1.2.1.3.3.7.7 1 1.3 1h2.7z"/></g></g></switch></svg>