<?xml version="1.0" encoding="utf-8"?><svg width="42" height="21" viewBox="0 0 42 21" xmlns="http://www.w3.org/2000/svg" xmlns:xlink="http://www.w3.org/1999/xlink"><svg height="21" viewBox="0 0 512.001 512" width="21" id="idea" xmlns="http://www.w3.org/2000/svg"><path d="M256 0C167.996 0 96.398 71.598 96.398 159.602c0 50.648 23.88 97.91 64.266 128.003v13.329c-9.836 8.644-16.062 21.304-16.062 35.398 0 12.41 4.828 23.711 12.695 32.137-7.867 8.426-12.695 19.722-12.695 32.133 0 21.14 13.988 39.074 33.199 45.027C183.98 483.223 216.684 512 256 512c39.316 0 72.023-28.777 78.203-66.371 19.207-5.957 33.2-23.887 33.2-45.031 0-12.407-4.829-23.707-12.696-32.133 7.867-8.426 12.695-19.723 12.695-32.133 0-14.094-6.226-26.754-16.066-35.402v-13.325c40.387-30.093 64.266-77.355 64.266-128.003C415.602 71.598 344.004 0 256 0zm64.27 319.2c9.445 0 17.132 7.687 17.132 17.132 0 9.45-7.687 17.137-17.132 17.137H191.734c-9.449 0-17.136-7.688-17.136-17.137 0-9.445 7.687-17.133 17.136-17.133zM256 482c-21.938 0-40.57-14.414-46.934-34.266h93.868C296.574 467.59 277.937 482 256 482zm64.27-64.266H191.734c-9.449 0-17.136-7.687-17.136-17.132 0-9.45 7.687-17.133 17.136-17.133H320.27c9.445 0 17.132 7.683 17.132 17.133 0 9.445-7.687 17.132-17.132 17.132zm7.722-150.355a15.001 15.001 0 0 0-6.656 12.465v9.383c-.356-.008-.711-.028-1.066-.028h-17.137v-59.117l21.539-21.539c5.86-5.86 5.86-15.356 0-21.215-5.856-5.86-15.356-5.86-21.211 0l-25.934 25.934a14.996 14.996 0 0 0-4.394 10.605V289.2h-34.266v-65.332c0-3.976-1.582-7.793-4.394-10.605l-25.934-25.934c-5.855-5.855-15.351-5.855-21.21 0-5.86 5.86-5.86 15.356 0 21.215l21.538 21.539v59.121h-17.133c-.359 0-.714.016-1.07.024v-9.383c0-5.004-2.496-9.68-6.656-12.465-36.07-24.149-57.61-64.438-57.61-107.777C126.398 88.137 184.54 30 256 30c71.46 0 129.602 58.137 129.602 129.602 0 43.34-21.54 83.628-57.61 107.777zm0 0M62.133 159.602c0-8.286-6.715-15-15-15H15c-8.285 0-15 6.714-15 15 0 8.28 6.715 15 15 15h32.133c8.285 0 15-6.72 15-15zm0 0M497 144.602h-32.133c-8.281 0-15 6.714-15 15 0 8.28 6.719 15 15 15H497c8.285 0 15-6.72 15-15 0-8.286-6.715-15-15-15zm0 0M67.613 251.043l-27.828 16.066c-7.172 4.145-9.629 13.317-5.488 20.493 2.777 4.812 7.82 7.5 13.004 7.5 2.543 0 5.125-.645 7.484-2.012l27.828-16.063c7.176-4.144 9.633-13.316 5.492-20.492-4.14-7.176-13.316-9.633-20.492-5.492zm0 0M436.898 70.172c2.543 0 5.122-.649 7.485-2.012l27.832-16.07c7.172-4.14 9.633-13.313 5.488-20.488-4.144-7.176-13.316-9.633-20.488-5.489L429.383 42.18c-7.172 4.14-9.633 13.316-5.488 20.488 2.777 4.812 7.82 7.504 13.003 7.504zm0 0M472.21 267.11l-27.827-16.063c-7.176-4.14-16.352-1.684-20.492 5.492-4.141 7.172-1.68 16.348 5.492 20.488l27.832 16.063a14.917 14.917 0 0 0 7.484 2.012c5.184 0 10.227-2.692 13.004-7.504 4.145-7.172 1.684-16.348-5.492-20.489zm0 0M82.617 42.176L54.79 26.113c-7.176-4.144-16.348-1.683-20.488 5.492-4.145 7.176-1.684 16.348 5.488 20.489L67.617 68.16a14.938 14.938 0 0 0 7.485 2.012c5.187 0 10.226-2.692 13.007-7.504 4.141-7.176 1.68-16.348-5.492-20.492zm0 0"/></svg><svg height="21" viewBox="0 0 512.001 512" width="21" id="trophy" x="21" xmlns="http://www.w3.org/2000/svg"><path d="M497 36.953h-65.703c.238-7.277.371-14.598.371-21.953 0-8.285-6.719-15-15-15H95.332c-8.281 0-15 6.715-15 15 0 7.355.133 14.676.371 21.953H15c-8.285 0-15 6.715-15 15 0 67.211 17.566 130.621 49.46 178.555 31.528 47.387 73.524 74.566 118.892 77.21 10.285 11.192 21.156 20.317 32.48 27.278v66.668h-25.164c-30.422 0-55.168 24.75-55.168 55.168v25.164h-1.066c-8.286 0-15 6.719-15 15 0 8.285 6.714 15 15 15h273.132c8.286 0 15-6.715 15-15 0-8.281-6.714-15-15-15H391.5v-25.164c0-30.418-24.746-55.168-55.168-55.168h-25.164v-66.668c11.324-6.957 22.2-16.086 32.484-27.277 45.364-2.645 87.36-29.824 118.891-77.211C494.437 182.574 512 119.164 512 51.953c0-8.285-6.715-15-15-15zM74.437 213.891c-26.308-39.536-41.765-91.246-44.12-146.938h52.062c5.41 68.461 21.48 131.742 46.598 181.973 4 8 8.183 15.558 12.523 22.676-24.95-9.422-48.04-29.118-67.063-57.711zM361.5 456.832V482h-211v-25.168c0-13.875 11.29-25.168 25.168-25.168h160.664c13.879 0 25.168 11.293 25.168 25.168zm-80.332-55.168h-50.336v-53.633c8.246 2.172 16.648 3.301 25.168 3.301s16.922-1.129 25.168-3.3zm9.289-89.32c-.676.277-1.324.613-1.945.984-10.602 5.274-21.496 8.004-32.512 8.004-11.012 0-21.902-2.73-32.5-7.996a14.973 14.973 0 0 0-1.965-1c-11.762-6.219-23.14-15.61-33.902-27.95a15.144 15.144 0 0 0-1.91-2.234c-10.684-12.683-20.735-28.285-29.914-46.644C128.242 180.378 112.32 107.89 110.508 30h290.984c-1.816 77.89-17.738 150.383-45.3 205.508-9.18 18.36-19.231 33.96-29.91 46.644-.712.68-1.356 1.43-1.919 2.239-10.761 12.343-22.144 21.73-33.906 27.953zm147.106-98.453c-19.024 28.593-42.114 48.289-67.063 57.71a308.862 308.862 0 0 0 12.523-22.675c25.118-50.23 41.184-113.512 46.598-181.973h52.063c-2.356 55.692-17.813 107.402-44.122 146.938zm0 0"/></svg></svg>